# xmcd
#
# Track frame offsets:
# 150
# 16185
# 31717
# 51958
#
# Disc length: 810 seconds
#
# Revision: 1
# Processed by: cddbd v1.5.2PL0 Copyright (c) Steve Scherf et al.
# Submitted via: CedeCatalogueitor 2.6.0.6 http://personales.ya.com/cdcatalogueitor
#
DISCID=23032804
DTITLE=The Radio Dept. - David
DYEAR=1900
DGENRE=
TTITLE0=David
TTITLE1=Messy Enough
TTITLE2=David Rmx
TTITLE3=The Idle Urban Contemporaries
EXTD=
EXTT0=
EXTT1=
EXTT2=
EXTT3=
PLAYORDER=
